<svg width="14" height="14" viewBox="0 0 14 14" fill="none" xmlns="http://www.w3.org/2000/svg">
<path d="M6.71378 11V5.54545H7.77557V11H6.71378ZM7.25 4.70384C7.06534 4.70384 6.90672 4.64228 6.77415 4.51918C6.64394 4.3937 6.57884 4.24455 6.57884 4.07173C6.57884 3.89654 6.64394 3.7474 6.77415 3.62429C6.90672 3.49882 7.06534 3.43608 7.25 3.43608C7.43466 3.43608 7.59209 3.49882 7.7223 3.62429C7.85488 3.7474 7.92116 3.89654 7.92116 4.07173C7.92116 4.24455 7.85488 4.3937 7.7223 4.51918C7.59209 4.64228 7.43466 4.70384 7.25 4.70384Z" fill="#E84040"/>
<circle cx="7" cy="7" r="6.5" stroke="#E84040"/>
</svg>
